<svg viewBox="0 0 24 24" fill="none" xmlns="http://www.w3.org/2000/svg"><path d="M12 14c1.66 0 3-1.34 3-3V5c0-1.66-1.34-3-3-3S9 3.34 9 5v6c0 1.66 1.34 3 3 3z" fill="#F23F43"/><path d="M17.73 11.3c-.18-.45-.69-.67-1.14-.49-.45.18-.67.69-.49 1.14C15.65 13.04 13.92 14 12 14s-3.65-.96-4.1-2.05c-.18-.45-.69-.67-1.14-.49-.45.18-.67.69-.49 1.14C6.91 14.15 9.24 15.77 12 15.96V19H9c-.55 0-1 .45-1 1s.45 1 1 1h6c-.55 0-1-.45-1-1s.45-1-1-1h-3v-3.04c2.76-.19 5.09-1.81 5.73-4.66z" fill="#F23F43"/><line x1="4.5" y1="4.5" x2="19.5" y2="19.5" stroke="#F23F43" stroke-width="2" stroke-linecap="round"/></svg>